<?xml version="1.0" standalone="no"?>
<!DOCTYPE svg PUBLIC "-//W3C//DTD SVG 20010904//EN"
 "http://www.w3.org/TR/2001/REC-SVG-20010904/DTD/svg10.dtd">
<svg version="1.0" xmlns="http://www.w3.org/2000/svg"
 width="752.000000pt" height="752.000000pt" viewBox="0 0 752.000000 752.000000"
 preserveAspectRatio="xMidYMid meet">
<metadata>
Created by potrace 1.11, written by Peter Selinger 2001-2013
</metadata>
<g transform="translate(0.000000,752.000000) scale(0.100000,-0.100000)"
fill="#000000" stroke="none">
<path d="M0 3760 l0 -3760 1016 0 1017 0 -6 68 c-4 37 -9 164 -12 282 -9 290
-32 444 -104 686 -27 90 -78 382 -98 559 -19 170 -22 743 -4 846 16 98 55 211
94 276 19 32 46 79 61 105 36 65 99 116 166 134 30 9 95 27 144 41 74 21 90
23 101 12 20 -21 82 -227 110 -364 35 -171 57 -361 59 -502 1 -137 -4 -150
-63 -155 -34 -3 -35 -2 -44 42 -9 44 -9 44 -23 20 -7 -14 -21 -58 -30 -97 -9
-41 -21 -73 -28 -73 -17 0 -96 111 -139 195 -33 66 -97 254 -97 288 0 9 -5 19
-11 22 -38 24 105 -430 198 -629 51 -107 56 -124 55 -182 -1 -36 -5 -72 -11
-81 -7 -14 -13 -8 -35 33 -71 132 -158 248 -210 278 l-29 17 7 -33 c9 -45 68
-167 99 -203 15 -17 58 -64 96 -105 l71 -75 1 -80 c5 -211 11 -261 40 -380 26
-104 45 -153 93 -245 21 -41 49 -95 62 -120 14 -27 30 -86 40 -150 8 -58 22
-136 30 -175 8 -38 21 -106 30 -150 9 -44 18 -86 20 -92 2 -10 45 -13 171 -13
107 0 164 3 157 10 -5 5 -24 10 -41 12 -28 2 -33 7 -44 45 -6 24 -14 41 -17
39 -2 -3 1 -20 7 -37 8 -22 8 -36 1 -43 -7 -7 -10 -2 -10 15 0 38 -30 117 -62
165 -15 23 -28 46 -28 52 0 6 -3 12 -7 14 -5 2 -24 26 -43 53 -19 28 -40 56
-47 63 -7 8 -25 39 -41 70 -15 31 -35 66 -45 77 -10 11 -28 38 -39 60 -11 22
-29 51 -38 65 -41 58 -69 120 -89 195 -11 44 -28 105 -36 135 -45 160 -36 642
15 797 l12 33 176 2 c227 3 242 2 252 -8 9 -10 -13 -312 -30 -410 -12 -74 -13
-94 -2 -94 20 0 100 326 104 422 1 23 4 26 19 18 10 -6 27 -10 38 -10 19 0 21
-6 21 -79 0 -44 3 -86 6 -94 3 -10 -2 -18 -16 -22 -21 -7 -22 -32 -1 -27 6 1
14 -4 17 -12 6 -15 -11 -455 -23 -593 -3 -46 -2 -73 4 -73 16 0 51 131 84 315
16 93 32 171 34 173 2 2 27 -1 55 -7 60 -13 296 -15 304 -2 6 9 -62 17 -241
27 -118 7 -123 8 -118 28 2 12 7 46 10 77 7 61 15 69 79 69 44 0 19 18 -29 22
-28 2 -40 7 -38 18 1 8 4 45 8 81 l6 66 136 6 c75 4 166 7 203 7 l66 0 -4 -34
c-5 -40 -8 -41 -117 -45 -123 -4 -117 -21 8 -21 l106 0 -5 -63 c-4 -54 6 -100
20 -87 6 7 26 224 26 293 l0 57 36 0 35 0 -6 -82 c-3 -46 -12 -92 -20 -104
-11 -18 -11 -23 0 -35 8 -8 23 -79 35 -164 12 -82 26 -170 32 -195 22 -98 71
-239 84 -244 16 -6 18 13 4 64 -35 133 -49 200 -50 237 0 73 -4 71 143 66 79
-3 137 -10 143 -17 10 -10 64 -160 64 -178 0 -4 -12 -8 -27 -10 -47 -5 -39
-28 10 -28 42 0 47 -2 70 -42 13 -24 34 -74 47 -113 13 -38 33 -91 46 -116
l23 -47 -252 -4 c-139 -2 -258 -2 -264 0 -7 2 -13 14 -13 26 0 12 -4 26 -9 32
-9 10 -63 139 -78 189 -6 17 -16 30 -24 30 -11 0 -15 -38 -20 -210 -3 -116 -6
-211 -7 -212 -1 -1 -18 -3 -37 -5 -49 -4 -49 -22 0 -26 l40 -3 1 -67 c1 -37 5
-136 8 -221 6 -123 5 -156 -6 -162 -10 -7 -10 -9 3 -9 9 0 16 -7 16 -15 0 -8
-4 -15 -8 -15 -13 0 -40 31 -34 39 2 5 -6 8 -18 7 -15 -1 -23 -8 -25 -23 -2
-16 -10 -23 -25 -22 -21 0 -21 1 -2 9 11 5 14 9 7 9 -7 1 -22 -4 -33 -10 -16
-8 -18 -13 -8 -25 6 -8 17 -14 25 -14 7 0 15 -10 17 -22 l4 -23 2 23 c0 12 8
22 16 22 12 0 15 -13 15 -55 l0 -55 524 0 523 0 37 146 c28 113 52 181 106
296 39 82 70 152 70 155 0 3 6 19 14 36 22 50 94 249 102 282 3 17 12 37 19
45 7 8 36 61 64 117 28 56 68 130 87 165 20 35 47 82 60 105 36 63 29 72 -11
15 -36 -53 -133 -162 -144 -162 -3 0 -5 81 -5 181 l2 181 34 36 c63 67 173
237 247 380 45 88 33 102 -14 17 -79 -144 -162 -273 -235 -361 l-45 -55 -8 71
-9 70 76 150 c80 157 201 448 192 458 -20 19 -120 -122 -198 -281 -37 -76 -46
-87 -64 -83 -12 3 -36 1 -54 -5 -29 -10 -34 -9 -57 14 l-26 25 32 169 c61 324
73 379 97 463 14 47 31 108 39 137 8 29 26 80 40 114 14 35 25 68 25 74 0 28
233 -31 340 -85 55 -28 103 -72 154 -141 35 -48 53 -138 65 -331 13 -213 -12
-481 -69 -728 -94 -407 -247 -1011 -271 -1068 -5 -13 -18 -85 -30 -160 -11
-76 -24 -153 -29 -172 -5 -19 -14 -73 -20 -120 -5 -47 -13 -100 -16 -117 l-5
-33 1161 0 1160 0 0 2109 0 2109 -32 11 c-18 5 -49 13 -68 17 -19 3 -44 12
-55 19 -11 7 -28 11 -37 10 -10 -2 -20 1 -24 6 -3 5 -12 9 -20 9 -18 0 -65 45
-57 54 4 3 2 6 -4 6 -5 0 -18 18 -29 40 -14 28 -25 40 -41 40 -12 0 -25 5 -28
11 -4 6 -13 8 -21 5 -17 -7 -74 13 -94 32 -11 12 -35 14 -123 8 -116 -7 -187
4 -187 29 0 23 -49 29 -101 13 -28 -9 -90 -16 -153 -17 -88 -2 -107 1 -112 14
-8 19 -21 19 -58 0 -15 -8 -48 -15 -72 -15 l-44 0 0 -40 c0 -22 -4 -40 -10
-40 -5 0 -10 7 -10 15 0 11 -11 15 -40 15 -36 0 -40 3 -40 24 0 22 5 25 43 29
l42 4 -42 1 c-24 1 -43 7 -43 13 0 7 -28 9 -87 4 -55 -4 -109 -1 -143 6 -30 7
-93 14 -140 15 -115 5 -120 5 -120 21 0 8 -4 12 -8 9 -10 -6 -27 40 -37 99
-24 131 -36 186 -57 255 -11 36 -22 91 -25 124 l-6 58 32 -7 c45 -10 122 11
156 43 16 15 32 27 35 27 11 1 55 28 62 39 5 7 28 5 75 -7 40 -10 92 -15 128
-13 50 3 67 0 105 -22 25 -14 54 -35 65 -46 11 -12 43 -39 70 -61 28 -22 52
-43 55 -46 3 -3 30 -14 60 -24 30 -10 80 -30 110 -43 97 -44 182 -71 202 -63
11 4 55 3 98 -2 62 -7 90 -5 132 6 49 14 60 14 142 -3 49 -10 92 -23 95 -28
10 -15 84 -50 123 -57 40 -8 77 -39 59 -50 -6 -3 -11 -14 -11 -24 0 -10 -11
-35 -25 -55 -27 -40 -33 -76 -12 -76 18 0 67 -24 67 -32 0 -24 203 29 248 65
9 7 12 82 12 312 l0 303 -34 16 c-19 9 -41 16 -50 16 -9 0 -16 5 -16 10 0 6
-7 10 -15 10 -11 0 -15 11 -15 40 0 29 4 40 15 40 8 0 15 9 15 20 0 17 -7 20
-49 20 -37 0 -53 5 -63 19 -18 25 -60 39 -52 17 5 -13 -2 -16 -35 -16 -23 0
-41 5 -41 10 0 6 7 10 15 10 18 0 18 8 0 40 -8 14 -14 19 -15 13 0 -8 -15 -13
-40 -13 -34 0 -40 3 -40 21 0 19 -5 21 -44 18 -24 -2 -42 -1 -39 4 2 4 -13 7
-35 7 -33 0 -43 6 -72 41 -19 22 -38 46 -42 52 -12 19 -9 75 5 80 7 2 12 20
12 42 0 36 2 38 47 51 35 11 51 22 67 49 24 41 25 41 82 16 34 -15 54 -18 87
-11 43 7 92 43 92 65 0 7 -23 22 -50 33 -46 19 -66 42 -37 42 8 0 9 3 1 8 -6
4 -10 14 -9 24 2 9 -4 18 -14 21 -9 2 -22 21 -29 41 -12 33 -12 40 3 56 9 10
36 23 61 29 80 20 79 87 -2 131 -19 11 -30 26 -32 43 -2 17 -17 37 -37 53 -19
14 -37 34 -40 44 -9 28 -51 51 -80 44 -14 -3 -32 -19 -41 -35 -21 -41 -43 -36
-92 20 -65 77 -82 150 -42 186 10 9 24 32 30 51 13 40 35 48 104 40 60 -8 87
6 91 48 4 30 31 66 50 66 7 0 25 16 39 35 21 27 34 35 59 35 55 1 81 35 70 91
-7 36 -57 89 -83 89 -26 0 -80 48 -80 71 0 10 3 18 8 17 14 -3 127 23 159 37
41 18 52 61 27 107 -9 18 -26 51 -37 73 -11 22 -27 48 -35 58 -14 16 -86 17
-1249 17 l-1234 0 -15 -37 c-9 -20 -14 -49 -12 -65 4 -23 1 -28 -17 -28 -13 0
-27 10 -34 24 -14 26 -50 46 -82 46 -11 0 -37 12 -56 28 l-36 27 -2244 3
-2243 2 0 -3760z m4854 3471 c18 -7 17 -10 -12 -36 -18 -16 -46 -50 -63 -77
-31 -49 -32 -49 -53 -30 -11 10 -34 26 -49 36 -32 20 -29 31 12 39 17 4 41 21
58 42 29 36 61 44 107 26z m1811 -111 c22 -11 50 -19 62 -20 29 0 53 -10 53
-22 0 -5 12 -25 26 -43 23 -31 24 -36 12 -62 -18 -39 -43 -40 -85 -3 -32 29
-41 31 -77 26 -28 -5 -54 -19 -81 -45 -22 -20 -44 -37 -50 -36 -29 3 -63 20
-90 45 -42 38 -88 55 -113 41 -29 -15 -42 -14 -36 4 4 8 13 15 21 15 7 0 25
11 38 24 21 21 29 23 57 15 70 -20 138 -2 138 36 0 12 55 45 75 44 6 0 28 -8
50 -19z m-571 -226 c21 -8 20 -34 -1 -50 -26 -19 -43 -17 -43 6 0 11 5 20 10
20 6 0 10 7 10 15 0 17 2 18 24 9z m-589 -71 c54 -26 42 -46 -32 -57 -52 -7
-67 -6 -88 8 -32 21 -32 32 3 50 36 20 74 20 117 -1z m477 -55 c3 -7 -15 -28
-39 -46 -24 -18 -43 -41 -43 -50 -1 -9 -7 -28 -15 -42 l-13 -25 -8 30 c-4 16
-16 44 -27 63 -24 40 -18 48 49 67 63 17 91 18 96 3z m104 -135 c-11 -11 -17
4 -9 23 7 18 8 18 11 1 2 -10 1 -21 -2 -24z m-615 -443 c26 0 29 -3 29 -30 0
-17 7 -47 15 -67 8 -20 13 -38 11 -41 -10 -9 -95 27 -124 53 -26 23 -29 29
-19 54 10 27 49 54 55 39 2 -5 17 -8 33 -8z m-1550 -238 c12 -26 21 -52 20
-59 -2 -16 30 -53 41 -47 4 3 12 -6 18 -20 6 -16 15 -24 23 -20 8 3 17 -2 21
-11 3 -9 2 -13 -4 -10 -5 3 -7 -1 -4 -9 3 -9 12 -12 21 -9 13 5 15 2 11 -15
-4 -15 -2 -19 9 -15 12 5 14 1 8 -18 -7 -22 -6 -22 9 -10 15 13 20 10 46 -20
25 -29 29 -31 30 -14 1 15 3 16 7 5 14 -38 76 -110 94 -110 11 0 18 -4 14 -9
-3 -6 0 -13 7 -18 7 -4 19 -20 27 -35 7 -14 21 -28 31 -31 10 -3 21 -19 25
-37 5 -24 10 -29 16 -19 6 10 9 8 9 -8 0 -17 6 -23 23 -24 12 0 17 -3 10 -6
-15 -6 5 -43 24 -43 6 0 14 -18 18 -41 4 -22 13 -43 21 -46 8 -3 13 -10 12
-17 -1 -6 4 -31 12 -56 14 -51 3 -301 -25 -530 -15 -116 -19 -132 -68 -230
-46 -92 -64 -117 -152 -205 -96 -96 -182 -160 -382 -281 -203 -124 -232 -127
-409 -40 -322 156 -458 262 -579 451 -36 57 -95 176 -109 220 -17 56 -37 260
-42 430 -5 173 -4 195 14 247 11 31 18 59 15 62 -4 3 -1 6 7 6 10 0 10 3 0 15
-10 12 -10 15 4 15 9 0 16 7 16 15 0 8 5 15 11 15 5 0 9 9 7 20 -2 10 1 19 6
19 5 -1 13 5 17 13 7 10 9 10 10 -2 0 -8 4 -4 8 10 4 15 15 26 29 28 15 2 22
10 22 26 0 23 32 61 42 50 3 -3 9 -1 13 5 3 6 -1 11 -11 11 -11 0 -5 8 17 23
18 12 39 32 45 45 8 17 13 19 24 9 10 -9 11 -9 6 1 -4 7 -1 15 8 18 10 4 16
18 16 37 0 40 11 29 12 -13 1 -17 4 -26 8 -20 4 7 16 9 27 6 12 -4 37 3 65 19
41 23 47 30 53 70 3 25 10 45 15 45 4 0 6 9 3 20 -3 12 1 22 11 26 8 3 18 21
22 40 3 19 10 34 14 34 9 0 24 -31 22 -42 -1 -5 5 -8 13 -8 8 0 15 6 16 13 0
6 5 -1 11 -18 14 -37 43 -76 52 -68 3 3 6 20 7 37 0 17 3 25 6 18 2 -6 9 -10
14 -6 5 3 9 -1 9 -8 0 -26 44 -52 97 -56 29 -3 53 -8 53 -13 0 -5 11 -9 24 -9
13 0 26 -3 29 -7 2 -5 2 -2 1 5 -2 6 4 12 14 12 31 -1 173 -46 166 -53 -4 -4
-2 -7 4 -7 7 0 12 5 12 10 0 6 5 10 11 10 5 0 7 -6 4 -12 -4 -7 2 -3 13 9 19
22 20 22 41 4 11 -10 18 -21 14 -25 -3 -3 -2 -6 4 -6 16 0 23 12 14 24 -15 19
-70 196 -77 249 -8 61 6 57 37 -11z m-2456 -44 c14 -6 25 -16 25 -22 0 -19
-54 -66 -77 -66 -23 0 -63 32 -63 50 0 19 40 50 65 50 13 0 36 -5 50 -12z
m1445 -382 c0 -3 -4 -8 -10 -11 -5 -3 -10 -1 -10 4 0 6 5 11 10 11 6 0 10 -2
10 -4z m3320 -21 c0 -13 22 -37 64 -72 8 -7 22 -13 31 -13 27 0 16 -17 -22
-33 -21 -8 -66 -21 -101 -28 -34 -6 -65 -16 -68 -20 -9 -15 -44 -10 -50 6 -4
8 -14 15 -23 15 -18 0 -41 18 -41 33 0 4 5 5 10 2 6 -3 10 -1 10 5 0 7 -6 10
-13 7 -15 -5 -54 20 -45 29 10 10 80 24 121 24 23 0 36 4 32 10 -3 5 0 7 8 4
8 -3 18 0 22 6 6 9 10 9 16 -1 10 -17 20 -8 22 20 1 23 27 30 27 6z m-3372
-56 c-3 -8 -7 -3 -11 10 -4 17 -3 21 5 13 5 -5 8 -16 6 -23z m2962 -9 c0 -5
-7 -10 -16 -10 -8 0 -12 5 -9 10 3 6 10 10 16 10 5 0 9 -4 9 -10z m-7 -57 c-7
-2 -21 -2 -30 0 -10 3 -4 5 12 5 17 0 24 -2 18 -5z m1190 -50 c-13 -2 -33 -2
-45 0 -13 2 -3 4 22 4 25 0 35 -2 23 -4z m83 -4 c4 -8 9 -7 15 2 8 11 11 11
20 -3 6 -12 22 -18 43 -18 19 0 39 -7 46 -15 10 -12 7 -15 -17 -20 -15 -3 -47
-10 -70 -16 -68 -15 -118 -11 -146 11 -14 11 -32 19 -39 18 -7 -2 -13 4 -13
12 0 11 14 16 50 18 28 2 54 7 60 13 12 12 42 11 51 -2z m167 -66 c-7 -2 -21
-2 -30 0 -10 3 -4 5 12 5 17 0 24 -2 18 -5z m-2382 -269 c17 -71 17 -84 5
-145 -14 -64 -62 -176 -72 -166 -3 3 0 67 5 143 6 77 11 170 11 209 0 64 1 68
16 53 9 -9 25 -51 35 -94z m1121 -572 c7 -7 23 -12 38 -12 20 0 22 -2 10 -10
-18 -11 -97 -12 -125 -1 -17 7 -16 9 13 15 18 4 30 11 27 16 -8 12 23 6 37 -8z
m945 -49 c-3 -3 -11 -2 -17 2 -9 6 -9 10 1 16 14 8 27 -7 16 -18z m-2910 -685
c-2 -162 4 -193 49 -253 32 -42 135 -127 166 -137 13 -5 -17 -208 -63 -413
-16 -71 -38 -177 -50 -235 -11 -58 -25 -110 -30 -116 -5 -6 -29 -14 -52 -16
-24 -3 -62 -18 -87 -33 l-43 -27 -84 27 c-104 35 -183 31 -279 -14 l-62 -29
-33 20 c-19 11 -51 34 -72 51 -32 25 -44 29 -77 24 -21 -3 -53 -12 -71 -21
-45 -22 -55 -20 -77 17 -15 24 -23 65 -31 162 -19 212 -41 394 -62 498 -10 54
-19 104 -19 111 0 7 24 29 53 49 71 50 152 135 166 176 6 19 11 87 11 152 0
66 3 119 6 119 3 0 26 -14 51 -30 24 -17 41 -26 38 -20 -3 5 -2 10 2 10 10 0
38 -42 35 -53 -1 -4 1 -6 5 -6 27 4 42 -2 37 -16 -4 -11 -2 -13 9 -9 8 3 18 1
22 -5 3 -6 0 -11 -7 -11 -7 -1 2 -7 20 -15 18 -8 31 -19 27 -25 -3 -5 0 -7 8
-4 8 3 18 0 22 -5 3 -6 10 -9 14 -7 4 3 20 -6 36 -20 40 -34 90 -32 143 7 23
16 50 31 61 32 11 0 19 4 19 7 -2 22 4 31 18 26 9 -3 12 -2 8 5 -6 11 35 46
49 41 5 -1 6 2 3 7 -4 5 3 16 14 24 11 7 17 17 13 20 -3 4 2 7 11 7 13 0 16 5
12 16 -4 12 -2 15 9 10 9 -3 19 3 25 14 6 11 17 20 24 20 12 0 14 -26 13 -132z
m-1342 -628 l-39 -80 25 -26 c13 -14 43 -37 67 -51 23 -14 44 -35 47 -46 14
-67 34 -251 29 -276 -3 -16 -1 -37 4 -48 6 -11 18 -102 26 -204 9 -101 19
-206 21 -234 l6 -50 -91 0 c-58 0 -90 4 -90 11 0 47 -33 343 -44 399 -8 39
-24 126 -36 195 -25 145 -42 217 -77 318 -14 39 -23 78 -20 85 2 7 33 23 68
35 35 13 80 31 99 42 19 10 37 16 39 14 3 -3 -13 -40 -34 -84z m1944 64 c35
-14 43 -24 81 -107 47 -104 46 -116 -18 -132 -52 -13 -61 -22 -73 -76 -11 -48
-48 -129 -60 -129 -4 0 -16 8 -28 18 l-21 17 30 200 c16 110 30 206 30 213 0
16 11 15 59 -4z m-1879 -21 c1 -5 7 -50 14 -101 13 -92 13 -92 -8 -86 -30 9
-76 55 -76 76 0 35 69 143 70 111z m2080 -48 c115 -54 111 -48 89 -132 -10
-40 -36 -130 -58 -200 -22 -70 -54 -182 -71 -248 -17 -66 -40 -147 -50 -180
-11 -33 -27 -100 -36 -150 -19 -106 -25 -119 -56 -122 -13 -2 -42 -6 -64 -9
-31 -4 -49 -1 -68 11 -20 13 -37 16 -72 10 l-46 -7 7 54 c8 67 55 328 62 348
3 8 6 29 8 45 1 17 8 67 16 113 l13 82 34 0 c43 0 76 35 91 98 20 79 32 94 84
109 26 8 51 21 54 29 8 20 -16 89 -45 132 -27 41 -22 67 11 58 12 -3 56 -21
97 -41z m-2351 -21 c40 -51 90 -241 131 -494 29 -183 58 -459 53 -504 -5 -36
-7 -38 -35 -32 -17 3 -38 6 -47 6 -14 0 -16 19 -18 153 -3 191 -50 482 -118
722 -40 144 -41 150 -17 164 25 15 28 14 51 -15z m2572 -14 c27 -15 24 -35
-21 -152 -41 -107 -98 -308 -124 -438 -38 -193 -84 -398 -89 -407 -8 -13 -73
-24 -93 -16 -23 8 -10 86 51 313 29 107 55 209 59 225 8 36 64 222 76 250 4
11 21 60 36 108 27 84 53 127 75 127 6 0 19 -5 30 -10z m-1693 -504 c15 -8 35
-23 45 -34 10 -10 35 -27 57 -37 l40 -18 72 34 c61 28 84 34 138 33 39 -1 87
-10 120 -23 71 -27 96 -26 145 4 26 16 55 24 83 25 50 0 50 0 21 -120 -11 -47
-22 -116 -24 -153 -2 -38 -7 -89 -11 -113 l-6 -45 -39 6 c-30 5 -47 2 -73 -14
-18 -12 -41 -19 -49 -15 -9 3 -33 0 -53 -6 -30 -10 -47 -9 -101 5 -62 17 -67
17 -124 0 -49 -15 -66 -16 -98 -7 -53 16 -72 15 -122 -8 -45 -20 -127 -26
-188 -14 l-31 7 0 228 0 229 23 0 c12 0 49 11 82 25 72 29 60 28 93 11z m1003
-35 c-9 -44 -17 -58 -26 -49 -3 2 2 26 11 52 20 57 28 55 15 -3z m-16 -153
c-4 -35 -11 -81 -16 -103 -5 -22 -9 -65 -10 -95 -2 -79 -10 -103 -41 -111 -15
-4 -29 -5 -31 -3 -9 10 60 340 76 362 21 28 29 10 22 -50z m790 -225 c-31 -71
-72 -154 -91 -186 -19 -32 -34 -64 -34 -70 0 -7 -5 -19 -10 -27 -15 -21 -4 28
25 113 26 75 158 324 163 308 2 -6 -22 -68 -53 -138z m-2156 -67 c-5 -6 -8 17
-8 60 l2 69 7 -60 c5 -34 4 -64 -1 -69z m1047 -67 c-12 -116 6 -106 -185 -111
-209 -6 -228 -4 -246 32 -14 27 -11 87 6 121 14 27 63 30 124 9 42 -15 62 -17
82 -9 14 5 43 9 63 7 24 -1 49 6 71 19 30 20 35 20 62 6 29 -15 30 -16 23 -74z
m-1156 10 c0 -14 3 -47 6 -73 7 -45 6 -46 -20 -46 -21 0 -30 8 -48 45 -23 47
-45 61 -34 23 18 -67 19 -65 -15 -77 -60 -21 -294 -5 -311 21 -4 7 -8 26 -8
41 0 37 38 53 150 62 49 4 96 14 110 23 61 38 67 39 120 23 43 -14 50 -20 50
-42z m638 30 c37 -9 51 -17 47 -27 -3 -7 -5 -34 -5 -58 l0 -44 -37 0 c-21 0
-54 -4 -73 -10 -19 -5 -71 -11 -115 -14 -44 -2 -99 -7 -122 -11 l-43 -8 0 72
c0 68 1 72 26 82 19 6 37 6 61 -2 38 -12 96 -5 128 16 23 14 55 24 70 20 6 -1
34 -8 63 -16z m1006 -14 c24 -18 75 -19 110 -4 20 10 34 8 71 -5 30 -12 58
-16 83 -11 31 5 45 1 84 -25 40 -26 50 -29 68 -20 49 26 65 -21 34 -96 -9 -22
-17 -40 -18 -41 -1 -1 -29 4 -63 12 -35 8 -139 17 -239 19 -103 3 -182 10
-188 16 -5 5 -25 10 -43 10 -18 0 -33 3 -33 7 0 3 5 35 11 70 9 51 16 66 33
73 32 13 69 11 90 -5z m-1516 -73 c2 -58 0 -72 -12 -72 -24 0 -28 17 -21 86
10 88 29 79 33 -14z m1308 16 c-4 -35 -9 -64 -11 -66 -1 -2 -19 -6 -40 -9
l-37 -6 6 32 c3 17 9 44 12 60 4 20 14 33 32 40 44 16 45 14 38 -51z m-729
-141 c-4 -27 -8 -52 -11 -54 -3 -3 -95 -2 -205 2 l-201 8 0 27 c0 25 4 28 38
33 263 34 364 44 376 38 5 -2 6 -26 3 -54z m723 34 c0 -5 3 -23 6 -40 6 -29 5
-31 -25 -31 -37 0 -41 -17 -6 -26 14 -3 25 -10 25 -14 0 -5 3 -15 6 -24 5 -13
-3 -16 -51 -16 -55 0 -57 1 -51 23 3 12 6 45 6 74 l0 52 38 4 c20 2 40 4 45 5
4 1 7 -2 7 -7z m-290 -130 c0 -71 3 -136 6 -145 5 -14 -3 -16 -56 -16 -73 0
-73 -16 1 -26 27 -4 52 -11 55 -15 3 -5 9 -32 13 -59 l8 -50 -101 0 c-56 0
-118 3 -138 6 l-38 7 0 67 c0 37 3 88 6 112 l6 45 58 6 c65 7 90 15 90 29 0 6
-28 7 -77 3 -69 -7 -76 -6 -70 9 4 10 7 24 7 31 0 7 18 15 45 20 52 7 51 25
-1 25 -36 0 -41 10 -28 58 6 21 11 22 110 22 l104 0 0 -129z m485 108 c33 -5
121 -11 195 -14 74 -3 162 -11 195 -18 l60 -13 12 -104 c29 -247 31 -384 9
-490 -2 -8 -7 -34 -11 -56 -7 -41 -8 -42 -44 -37 -35 5 -81 -14 -202 -84 -53
-31 -223 -163 -240 -187 -4 -4 -42 -5 -85 -1 l-79 7 -32 67 c-43 88 -59 135
-67 199 l-7 52 49 0 c27 0 63 3 79 6 27 5 31 3 36 -23 3 -15 13 -37 22 -48 15
-19 16 -17 10 28 l-6 47 74 0 c84 0 137 8 137 21 0 5 -52 9 -115 9 l-115 0 0
63 c0 34 -3 142 -7 240 l-6 177 46 0 c47 0 69 13 41 24 -9 3 -29 6 -45 6 -27
0 -30 3 -27 28 2 15 8 26 13 25 45 -7 289 -14 310 -9 57 14 7 24 -155 31 -93
4 -170 11 -170 16 0 4 5 20 10 34 8 22 15 26 33 20 12 -4 49 -11 82 -16z
m-1485 -14 c0 -22 -4 -25 -34 -25 -30 0 -33 2 -28 25 3 20 10 25 33 25 24 0
29 -4 29 -25z m1276 -145 c23 0 24 -3 24 -63 0 -83 19 -322 30 -370 4 -20 5
-39 1 -41 -3 -2 -36 -7 -73 -11 l-68 -7 0 252 0 253 31 -7 c17 -3 42 -6 55 -6z
m29 -880 l110 0 -55 -54 -55 -55 -238 -2 c-140 -2 -241 1 -246 7 -14 14 -51
83 -51 94 0 11 191 19 330 14 52 -2 144 -4 205 -4z m-67 -187 c-18 -26 -39
-54 -45 -61 -7 -7 -13 -17 -13 -21 0 -4 -43 -8 -96 -10 -53 -1 -110 -4 -128
-6 -33 -4 -31 -7 -93 95 l-21 35 141 5 c78 3 175 7 215 8 l73 2 -33 -47z
m-104 -138 c-4 -8 -10 -15 -14 -15 -5 0 -21 -20 -37 -45 -15 -25 -35 -45 -44
-45 -14 0 -79 85 -79 103 0 3 39 8 88 10 48 1 88 4 89 5 1 1 0 -5 -3 -13z
m-523 -349 c5 3 9 -14 8 -38 l-1 -43 -13 35 c-7 19 -13 42 -13 50 0 10 1 11 5
2 2 -6 9 -10 14 -6z"/>
<path d="M3565 5750 c3 -5 8 -10 11 -10 2 0 4 5 4 10 0 6 -5 10 -11 10 -5 0
-7 -4 -4 -10z"/>
<path d="M2828 5020 c-13 -15 -12 -20 8 -43 13 -15 32 -27 44 -27 11 0 20 -7
20 -15 0 -8 6 -12 13 -9 8 3 33 0 57 -5 38 -9 56 -5 149 26 116 38 146 52 121
53 -10 1 -9 4 5 11 13 6 -4 7 -55 3 -116 -9 -256 -4 -304 10 -39 12 -45 12
-58 -4z"/>
<path d="M4315 5018 c-64 -21 -185 -28 -265 -15 -25 3 -39 4 -31 1 11 -5 11
-8 0 -15 -17 -10 15 -23 140 -55 79 -20 100 -22 142 -13 28 6 56 8 64 6 7 -3
16 1 19 8 3 8 12 12 20 9 9 -3 17 3 21 15 3 12 11 21 16 21 6 0 0 13 -13 29
-27 35 -34 35 -113 9z"/>
<path d="M3958 2983 c12 -2 32 -2 45 0 12 2 2 4 -23 4 -25 0 -35 -2 -22 -4z"/>
<path d="M3854 2965 c-18 -14 -17 -14 11 -6 57 17 60 19 34 20 -14 1 -34 -6
-45 -14z"/>
<path d="M3331 2966 c2 -2 18 -6 34 -10 22 -5 26 -4 15 4 -14 9 -59 15 -49 6z"/>
<path d="M3430 2935 c0 -6 56 -35 67 -35 10 0 -27 25 -49 33 -10 4 -18 4 -18
2z"/>
<path d="M3802 2917 c-25 -27 -30 -46 -6 -27 15 13 38 50 31 50 -2 0 -13 -10
-25 -23z"/>
<path d="M3650 1970 c-16 -30 -9 -95 10 -95 11 0 16 14 18 58 3 59 -8 74 -28
37z"/>
<path d="M4756 1932 c-12 -20 -18 -92 -8 -92 15 0 20 11 28 58 4 27 3 42 -4
42 -6 0 -13 -4 -16 -8z"/>
<path d="M4436 1510 c11 -11 149 -26 323 -35 99 -5 122 -4 119 7 -3 9 -42 17
-119 25 -143 15 -337 17 -323 3z"/>
<path d="M4433 1403 c-38 -15 0 -23 110 -23 109 1 120 2 103 15 -14 11 -45 15
-110 14 -50 0 -97 -3 -103 -6z"/>
<path d="M7420 6100 c0 -13 70 -13 90 0 11 7 0 10 -37 10 -29 0 -53 -4 -53
-10z"/>
<path d="M6960 5796 c-7 -9 -16 -13 -21 -10 -10 6 -12 -17 -3 -40 7 -20 77
-22 92 -3 11 14 -2 57 -17 57 -5 0 -16 2 -24 5 -7 3 -20 -1 -27 -9z"/>
<path d="M7505 5560 c-3 -5 -15 -10 -26 -10 -17 0 -19 -7 -19 -80 0 -73 -2
-80 -20 -80 -13 0 -20 -7 -20 -20 0 -11 4 -20 10 -20 5 0 15 9 22 20 15 23 48
27 48 5 0 -8 5 -15 10 -15 6 0 10 42 10 105 0 102 -2 116 -15 95z"/>
<path d="M7353 5473 c15 -2 37 -2 50 0 12 2 0 4 -28 4 -27 0 -38 -2 -22 -4z"/>
<path d="M2485 1700 c-8 -12 121 -12 150 0 13 6 -7 9 -62 9 -45 1 -85 -3 -88
-9z"/>
<path d="M2490 1521 c22 -13 169 -18 172 -6 2 6 -35 11 -92 12 -59 2 -89 -1
-80 -6z"/>
<path d="M3435 1381 c-16 -15 4 -21 72 -21 48 0 73 4 68 9 -10 10 -132 20
-140 12z"/>
<path d="M3450 1155 c0 -21 167 -22 196 0 17 13 8 14 -88 15 -90 0 -108 -3
-108 -15z"/>
<path d="M2960 791 c0 -16 30 -21 129 -21 127 0 251 11 251 21 0 5 -85 9 -190
9 -105 0 -190 -4 -190 -9z"/>
<path d="M2840 690 c-14 -5 66 -8 185 -8 117 0 197 4 180 8 -40 10 -333 10
-365 0z"/>
<path d="M2872 489 c-14 -5 -13 -8 8 -20 33 -18 670 -27 670 -10 0 7 -6 14
-12 16 -20 8 -647 21 -666 14z"/>
<path d="M2834 319 c-9 -15 73 -29 169 -29 80 0 97 3 97 15 0 17 2 16 -153 19
-60 1 -110 -1 -113 -5z"/>
<path d="M2902 232 c-45 -14 -21 -27 54 -30 70 -3 108 7 92 24 -10 9 -120 14
-146 6z"/>
</g>
</svg>
